<?xml version="1.0" encoding="UTF-8" standalone="no"?>
<svg
   version="1.1"
   id="Layer_1"
   x="0px"
   y="0px"
   width="77.114998"
   height="76.526001"
   viewBox="0 0 77.114998 76.526001"
   enable-background="new 0 0 100 100"
   xml:space="preserve"
   sodipodi:docname="new.svg"
   inkscape:version="1.1.1 (c3084ef, 2021-09-22)"
   xmlns:inkscape="http://www.inkscape.org/namespaces/inkscape"
   xmlns:sodipodi="http://sodipodi.sourceforge.net/DTD/sodipodi-0.dtd"
   xmlns="http://www.w3.org/2000/svg"
   xmlns:svg="http://www.w3.org/2000/svg"><defs
   id="defs831" /><sodipodi:namedview
   id="namedview829"
   pagecolor="#ffffff"
   bordercolor="#666666"
   borderopacity="1.0"
   inkscape:pageshadow="2"
   inkscape:pageopacity="0.0"
   inkscape:pagecheckerboard="0"
   showgrid="false"
   inkscape:zoom="6.67"
   inkscape:cx="38.605697"
   inkscape:cy="38.305847"
   inkscape:window-width="2560"
   inkscape:window-height="1387"
   inkscape:window-x="0"
   inkscape:window-y="25"
   inkscape:window-maximized="1"
   inkscape:current-layer="g826"
   fit-margin-top="0"
   fit-margin-left="0"
   fit-margin-right="0"
   fit-margin-bottom="0" />
<g
   id="g826"
   transform="translate(-11.443,-11.737)">
	<path
   d="m 88.558,49.96 c 0,-0.885 -0.435,-1.663 -1.097,-2.151 l 0.014,-0.024 -9.324,-5.383 5.367,-9.296 -0.018,-0.011 c 0.328,-0.752 0.315,-1.643 -0.127,-2.408 -0.443,-0.766 -1.208,-1.223 -2.025,-1.314 V 29.347 H 70.58 V 18.61 h -0.022 c -0.092,-0.816 -0.549,-1.58 -1.314,-2.022 -0.767,-0.443 -1.658,-0.456 -2.412,-0.125 l -0.013,-0.023 -9.481,5.474 -5.25,-9.094 -0.019,0.011 c -0.488,-0.66 -1.265,-1.094 -2.149,-1.094 -0.885,0 -1.664,0.435 -2.151,1.097 l -0.024,-0.014 -5.337,9.244 -9.19,-5.306 -0.011,0.019 c -0.753,-0.328 -1.643,-0.315 -2.408,0.127 -0.767,0.442 -1.223,1.208 -1.315,2.025 H 29.457 V 29.603 H 18.845 v 0.021 c -0.816,0.092 -1.58,0.549 -2.022,1.314 -0.442,0.766 -0.455,1.657 -0.126,2.41 l -0.023,0.014 5.246,9.087 -9.394,5.424 0.011,0.019 c -0.66,0.488 -1.094,1.265 -1.094,2.149 0,0.885 0.435,1.664 1.097,2.151 l -0.014,0.024 9.324,5.383 -5.367,9.296 0.018,0.01 c -0.328,0.753 -0.315,1.643 0.127,2.408 0.443,0.766 1.208,1.223 2.025,1.314 v 0.027 H 29.42 V 81.39 h 0.022 c 0.092,0.816 0.549,1.58 1.314,2.022 0.767,0.443 1.659,0.455 2.412,0.125 l 0.013,0.023 9.481,-5.474 5.25,9.094 0.019,-0.011 c 0.488,0.66 1.265,1.094 2.149,1.094 0.885,0 1.664,-0.435 2.151,-1.096 l 0.023,0.013 5.337,-9.244 9.191,5.306 0.011,-0.019 c 0.753,0.328 1.643,0.315 2.408,-0.127 0.767,-0.442 1.223,-1.208 1.315,-2.025 h 0.027 V 70.398 h 10.613 v -0.021 c 0.816,-0.092 1.58,-0.549 2.022,-1.314 0.442,-0.766 0.455,-1.658 0.126,-2.411 l 0.023,-0.013 -5.246,-9.087 9.394,-5.424 -0.011,-0.019 c 0.66,-0.487 1.094,-1.265 1.094,-2.149 z m -44.843,11.395 -9.846,-4.35 4.345,7.525 -2.456,1.418 -6.662,-11.537 2.525,-1.459 9.53,4.162 -4.185,-7.248 2.457,-1.418 6.66,11.537 z m 4.652,-2.686 -6.661,-11.538 8.165,-4.713 1.248,2.162 -5.709,3.295 1.398,2.422 5.587,-3.225 1.248,2.16 -5.587,3.227 1.518,2.629 5.709,-3.295 1.248,2.162 z M 67.273,47.754 60.675,41 l 2.567,9.08 -2.611,1.508 -9.965,-9.629 2.75,-1.588 6.838,7.168 -2.617,-9.605 1.92,-1.108 6.993,7.079 -2.79,-9.506 2.75,-1.588 3.375,13.436 z"
   id="path824"
   style="fill:#ffdd00;fill-opacity:1" />
</g>
</svg>
