<?xml version="1.0" encoding="UTF-8" standalone="no"?>
<svg
   width="959.99951"
   height="26.390627"
   viewBox="0 0 959.9995 26.390627"
   version="1.1"
   id="svg63"
   sodipodi:docname="tplogo-text.svg"
   inkscape:version="1.1.1 (c3084ef, 2021-09-22)"
   xmlns:inkscape="http://www.inkscape.org/namespaces/inkscape"
   xmlns:sodipodi="http://sodipodi.sourceforge.net/DTD/sodipodi-0.dtd"
   xmlns="http://www.w3.org/2000/svg"
   xmlns:svg="http://www.w3.org/2000/svg"
   xmlns:rdf="http://www.w3.org/1999/02/22-rdf-syntax-ns#"
   xmlns:cc="http://creativecommons.org/ns#"
   xmlns:dc="http://purl.org/dc/elements/1.1/">
  <defs
     id="defs67" />
  <sodipodi:namedview
     id="namedview65"
     pagecolor="#000000"
     bordercolor="#666666"
     borderopacity="1.0"
     inkscape:pageshadow="2"
     inkscape:pageopacity="0"
     inkscape:pagecheckerboard="0"
     showgrid="false"
     height="26.391px"
     inkscape:zoom="1.1738116"
     inkscape:cx="388.05207"
     inkscape:cy="14.056771"
     inkscape:window-width="2560"
     inkscape:window-height="1387"
     inkscape:window-x="0"
     inkscape:window-y="25"
     inkscape:window-maximized="1"
     inkscape:current-layer="text1005"
     fit-margin-top="0"
     fit-margin-left="0"
     fit-margin-right="0"
     fit-margin-bottom="0" />
  <title
     id="title50">logo</title>
  <g
     id="Page-1"
     stroke="none"
     stroke-width="1"
     fill="none"
     fill-rule="evenodd">
    <g
       id="logo"
       fill="#ffffff">
      <g
         aria-label="THOMAS PAINE NATIONAL HISTORICAL ASSOCIATION"
         id="text1005"
         style="font-size:34.8472px;fill:#000000;stroke-width:0.87118">
        <path
           d="M 21.473229,3.5221536 H 12.421125 V 25.863155 H 9.0521086 V 3.5221536 H 4.3511391e-6 V 0.52747248 H 21.473229 Z"
           style="fill:#ffffff"
           id="path3071" />
        <path
           d="M 44.290658,25.863155 H 40.921641 V 13.45905 H 28.279323 V 25.863155 H 24.910307 V 0.52747248 h 3.369016 V 10.464369 H 40.921641 V 0.52747248 h 3.369017 z"
           style="fill:#ffffff"
           id="path3073" />
        <path
           d="m 70.000677,3.4370774 q 1.548386,1.7015234 2.365117,4.1687323 0.833747,2.4672093 0.833747,5.5980123 0,3.130803 -0.850762,5.615027 -0.833747,2.467209 -2.348102,4.117686 -1.565402,1.718539 -3.709321,2.586316 -2.126904,0.867777 -4.866357,0.867777 -2.671392,0 -4.866357,-0.884793 -2.17795,-0.884792 -3.709321,-2.5693 -1.531371,-1.684508 -2.365117,-4.134702 -0.816732,-2.450193 -0.816732,-5.598011 0,-3.096773 0.816732,-5.5469666 0.816731,-2.4672089 2.382132,-4.219778 Q 54.363677,1.7695845 56.575657,0.88479239 58.804653,2.3841858e-7 61.424999,2.3841858e-7 q 2.722437,0 4.883372,0.90180738158142 2.17795,0.88479218 3.692306,2.53526978 z m -0.306275,9.7667446 q 0,-4.9344182 -2.21198,-7.6058099 -2.21198,-2.6884069 -6.040408,-2.6884069 -3.862458,0 -6.074438,2.6884069 -2.194965,2.6713917 -2.194965,7.6058099 0,4.985463 2.24601,7.639839 2.246011,2.637362 6.023393,2.637362 3.777382,0 6.006378,-2.637362 2.24601,-2.654376 2.24601,-7.639839 z"
           style="fill:#ffffff"
           id="path3075" />
        <path
           d="M 101.10453,25.863155 H 97.735509 V 4.0326106 L 90.691202,18.88691 H 88.683405 L 81.690144,4.0326106 V 25.863155 H 78.542326 V 0.52747248 h 4.594113 L 89.891487,14.633101 96.425336,0.52747248 h 4.679194 z"
           style="fill:#ffffff"
           id="path3077" />
        <path
           d="m 127.92053,25.863155 h -3.59021 l -2.48423,-7.061322 h -10.95781 l -2.48422,7.061322 H 104.984 l 9.22225,-25.33568252 h 4.49202 z M 120.80816,15.909244 116.36719,3.4711079 111.9092,15.909244 Z"
           style="fill:#ffffff"
           id="path3079" />
        <path
           d="m 150.17646,18.631681 q 0,1.480325 -0.69762,2.92662 -0.68061,1.446295 -1.92272,2.450194 -1.36122,1.088975 -3.18185,1.701523 -1.80362,0.612549 -4.3559,0.612549 -2.73945,0 -4.93442,-0.510457 -2.17795,-0.510457 -4.44097,-1.514356 v -4.219778 h 0.23821 q 1.92272,1.599432 4.44098,2.467209 2.51825,0.867777 4.73023,0.867777 3.1308,0 4.86636,-1.174051 1.75257,-1.174052 1.75257,-3.130803 0,-1.684509 -0.83375,-2.484224 -0.81673,-0.799716 -2.50124,-1.242113 -1.27614,-0.340304 -2.77348,-0.561502 -1.48033,-0.221198 -3.14782,-0.561503 -3.36902,-0.71464 -5.00248,-2.433178 -1.61645,-1.735554 -1.61645,-4.5090373 0,-3.1818487 2.68841,-5.2066615 2.68841,-2.04182803 6.82311,-2.04182803 2.67139,0 4.90039,0.51045701 2.22899,0.51045702 3.94753,1.25912732 v 3.9815646 h -0.23821 q -1.4463,-1.2250968 -3.81142,-2.0248128 -2.3481,-0.8167312 -4.81531,-0.8167312 -2.70542,0 -4.3559,1.1230054 -1.63346,1.1230055 -1.63346,2.8925898 0,1.5824167 0.81673,2.4842241 0.81673,0.9018076 2.87558,1.3782336 1.08897,0.238214 3.09677,0.578518 2.0078,0.340305 3.40305,0.697625 2.82452,0.74867 4.2538,2.263026 1.42928,1.514356 1.42928,4.236793 z"
           style="fill:#ffffff"
           id="path3081" />
        <path
           d="m 184.41112,8.1843276 q 0,1.6845081 -0.59554,3.1308034 -0.57852,1.429279 -1.63346,2.484224 -1.31017,1.310173 -3.09677,1.973767 -1.7866,0.646579 -4.50904,0.646579 h -3.36902 v 9.443454 h -3.36901 V 0.52747248 h 6.87415 q 2.28004,0 3.86246,0.39135037 1.58242,0.37433515 2.80751,1.19106635 1.4463,0.9698683 2.229,2.4161632 0.79972,1.4462948 0.79972,3.6582752 z m -3.50514,0.085076 q 0,-1.310173 -0.45941,-2.2800413 -0.45942,-0.9698683 -1.39525,-1.5824167 -0.81673,-0.5274723 -1.87168,-0.7486703 -1.03793,-0.2382133 -2.63736,-0.2382133 h -3.33499 V 13.544126 h 2.84155 q 2.04183,0 3.31797,-0.35732 1.27614,-0.374335 2.07586,-1.174051 0.79971,-0.816731 1.123,-1.718538 0.34031,-0.9018078 0.34031,-2.0248132 z"
           style="fill:#ffffff"
           id="path3083" />
        <path
           d="m 208.84498,25.863155 h -3.59021 l -2.48422,-7.061322 h -10.95781 l -2.48423,7.061322 h -3.42006 l 9.22226,-25.33568252 h 4.49202 z m -7.11236,-9.953911 -4.44098,-12.4381361 -4.45799,12.4381361 z"
           style="fill:#ffffff"
           id="path3085" />
        <path
           d="M 221.62342,25.863155 H 211.61846 V 23.27684 h 3.31797 V 3.113788 h -3.31797 V 0.52747248 h 10.00496 V 3.113788 h -3.31797 V 23.27684 h 3.31797 z"
           style="fill:#ffffff"
           id="path3087" />
        <path
           d="m 246.7209,25.863155 h -4.16874 L 230.53941,3.1988642 V 25.863155 h -3.14782 V 0.52747248 h 5.22368 L 243.57308,21.217997 V 0.52747248 h 3.14782 z"
           style="fill:#ffffff"
           id="path3089" />
        <path
           d="M 270.15087,25.863155 H 253.45893 V 0.52747248 h 16.69194 V 3.5221536 h -13.32292 v 6.9422154 h 13.32292 v 2.994681 h -13.32292 v 9.409424 h 13.32292 z"
           style="fill:#ffffff"
           id="path3091" />
        <path
           d="m 307.09094,25.863155 h -4.16873 L 290.90945,3.1988642 V 25.863155 h -3.14782 V 0.52747248 h 5.22368 L 303.94312,21.217997 V 0.52747248 h 3.14782 z"
           style="fill:#ffffff"
           id="path3093" />
        <path
           d="m 333.80487,25.863155 h -3.59022 l -2.48422,-7.061322 h -10.95781 l -2.48422,7.061322 h -3.42007 l 9.22226,-25.33568252 h 4.49202 z m -7.11237,-9.953911 -4.44097,-12.4381361 -4.458,12.4381361 z"
           style="fill:#ffffff"
           id="path3095" />
        <path
           d="m 355.72048,3.5221536 h -9.0521 V 25.863155 h -3.36902 V 3.5221536 h -9.0521 V 0.52747248 h 21.47322 z"
           style="fill:#ffffff"
           id="path3097" />
        <path
           d="M 368.09057,25.863155 H 358.08561 V 23.27684 h 3.31797 V 3.113788 h -3.31797 V 0.52747248 h 10.00496 V 3.113788 h -3.31798 V 23.27684 h 3.31798 z"
           style="fill:#ffffff"
           id="path3099" />
        <path
           d="m 392.74562,3.4370774 q 1.54838,1.7015234 2.36512,4.1687323 0.83374,2.4672093 0.83374,5.5980123 0,3.130803 -0.85076,5.615027 -0.83375,2.467209 -2.3481,4.117686 -1.5654,1.718539 -3.70932,2.586316 -2.12691,0.867777 -4.86636,0.867777 -2.67139,0 -4.86636,-0.884793 -2.17795,-0.884792 -3.70932,-2.5693 -1.53137,-1.684508 -2.36511,-4.134702 -0.81674,-2.450193 -0.81674,-5.598011 0,-3.096773 0.81674,-5.5469666 0.81673,-2.4672089 2.38213,-4.219778 1.49734,-1.6674929 3.70932,-2.55228501 Q 381.54959,2.3841858e-7 384.16994,2.3841858e-7 q 2.72244,0 4.88337,0.90180738158142 2.17795,0.88479218 3.69231,2.53526978 z m -0.30628,9.7667446 q 0,-4.9344182 -2.21198,-7.6058099 -2.21198,-2.6884069 -6.0404,-2.6884069 -3.86246,0 -6.07444,2.6884069 -2.19497,2.6713917 -2.19497,7.6058099 0,4.985463 2.24601,7.639839 2.24601,2.637362 6.0234,2.637362 3.77738,0 6.00637,-2.637362 2.24601,-2.654376 2.24601,-7.639839 z"
           style="fill:#ffffff"
           id="path3101" />
        <path
           d="m 420.61657,25.863155 h -4.16873 L 404.43509,3.1988642 V 25.863155 h -3.14782 V 0.52747248 h 5.22367 L 417.46875,21.217997 V 0.52747248 h 3.14782 z"
           style="fill:#ffffff"
           id="path3103" />
        <path
           d="m 447.3305,25.863155 h -3.59021 l -2.48422,-7.061322 h -10.95781 l -2.48423,7.061322 h -3.42006 l 9.22226,-25.33568252 h 4.49202 z m -7.11236,-9.953911 -4.44098,-12.4381361 -4.45799,12.4381361 z"
           style="fill:#ffffff"
           id="path3105" />
        <path
           d="M 467.20429,25.863155 H 451.17594 V 0.52747248 h 3.36902 V 22.868474 h 12.65933 z"
           style="fill:#ffffff"
           id="path3107" />
        <path
           d="m 502.20464,25.863155 h -3.36902 V 13.45905 H 486.1933 v 12.404105 h -3.36901 V 0.52747248 h 3.36901 V 10.464369 h 12.64232 V 0.52747248 h 3.36902 z"
           style="fill:#ffffff"
           id="path3109" />
        <path
           d="M 517.96074,25.863155 H 507.95579 V 23.27684 h 3.31797 V 3.113788 h -3.31797 V 0.52747248 h 10.00495 V 3.113788 h -3.31797 V 23.27684 h 3.31797 z"
           style="fill:#ffffff"
           id="path3111" />
        <path
           d="m 542.1394,18.631681 q 0,1.480325 -0.69762,2.92662 -0.68061,1.446295 -1.92273,2.450194 -1.36121,1.088975 -3.18184,1.701523 -1.80362,0.612549 -4.3559,0.612549 -2.73946,0 -4.93442,-0.510457 -2.17795,-0.510457 -4.44098,-1.514356 v -4.219778 h 0.23822 q 1.92272,1.599432 4.44097,2.467209 2.51826,0.867777 4.73024,0.867777 3.1308,0 4.86635,-1.174051 1.75257,-1.174052 1.75257,-3.130803 0,-1.684509 -0.83374,-2.484224 -0.81674,-0.799716 -2.50124,-1.242113 -1.27615,-0.340304 -2.77349,-0.561502 -1.48032,-0.221198 -3.14781,-0.561503 -3.36902,-0.71464 -5.00248,-2.433178 -1.61645,-1.735554 -1.61645,-4.5090373 0,-3.1818487 2.68841,-5.2066615 2.6884,-2.04182803 6.82311,-2.04182803 2.67139,0 4.90038,0.51045701 2.229,0.51045702 3.94754,1.25912732 v 3.9815646 h -0.23822 q -1.44629,-1.2250968 -3.81141,-2.0248128 -2.3481,-0.8167312 -4.81531,-0.8167312 -2.70542,0 -4.3559,1.1230054 -1.63346,1.1230055 -1.63346,2.8925898 0,1.5824167 0.81673,2.4842241 0.81673,0.9018076 2.87557,1.3782336 1.08898,0.238214 3.09678,0.578518 2.00779,0.340305 3.40304,0.697625 2.82453,0.74867 4.25381,2.263026 1.42928,1.514356 1.42928,4.236793 z"
           style="fill:#ffffff"
           id="path3113" />
        <path
           d="m 565.62038,3.5221536 h -9.0521 V 25.863155 h -3.36902 V 3.5221536 h -9.0521 V 0.52747248 h 21.47322 z"
           style="fill:#ffffff"
           id="path3115" />
        <path
           d="m 587.94438,3.4370774 q 1.54839,1.7015234 2.36512,4.1687323 0.83374,2.4672093 0.83374,5.5980123 0,3.130803 -0.85076,5.615027 -0.83374,2.467209 -2.3481,4.117686 -1.5654,1.718539 -3.70932,2.586316 -2.12691,0.867777 -4.86636,0.867777 -2.67139,0 -4.86636,-0.884793 -2.17795,-0.884792 -3.70932,-2.5693 -1.53137,-1.684508 -2.36511,-4.134702 -0.81673,-2.450193 -0.81673,-5.598011 0,-3.096773 0.81673,-5.5469666 0.81673,-2.4672089 2.38213,-4.219778 1.49734,-1.6674929 3.70932,-2.55228501 Q 576.74836,2.3841858e-7 579.3687,2.3841858e-7 q 2.72244,0 4.88337,0.90180738158142 2.17795,0.88479218 3.69231,2.53526978 z m -0.30627,9.7667446 q 0,-4.9344182 -2.21199,-7.6058099 -2.21198,-2.6884069 -6.0404,-2.6884069 -3.86246,0 -6.07444,2.6884069 -2.19497,2.6713917 -2.19497,7.6058099 0,4.985463 2.24601,7.639839 2.24601,2.637362 6.0234,2.637362 3.77738,0 6.00637,-2.637362 2.24602,-2.654376 2.24602,-7.639839 z"
           style="fill:#ffffff"
           id="path3117" />
        <path
           d="m 617.44883,25.863155 h -4.37292 l -8.47358,-10.073018 h -4.74725 v 10.073018 h -3.36902 V 0.52747248 h 7.09535 q 2.29706,0 3.82843,0.30627421 1.53137,0.28925901 2.75647,1.05494451 1.37823,0.8677769 2.14392,2.1949651 0.7827,1.310173 0.7827,3.3349858 0,2.7394529 -1.37824,4.5941129 -1.37823,1.837645 -3.79439,2.773483 z M 609.57077,7.6568554 q 0,-1.088975 -0.39135,-1.9227214 -0.37433,-0.8507617 -1.25912,-1.4292797 -0.73166,-0.4934417 -1.73556,-0.6806093 -1.0039,-0.2041828 -2.36512,-0.2041828 h -3.96454 v 9.5625618 h 3.40304 q 1.59943,0 2.7905,-0.272244 1.19107,-0.289259 2.02481,-1.054945 0.76569,-0.71464 1.12301,-1.633462 0.37433,-0.935838 0.37433,-2.3651176 z"
           style="fill:#ffffff"
           id="path3119" />
        <path
           d="M 629.64873,25.863155 H 619.64377 V 23.27684 h 3.31798 V 3.113788 h -3.31798 V 0.52747248 h 10.00496 V 3.113788 h -3.31797 V 23.27684 h 3.31797 z"
           style="fill:#ffffff"
           id="path3121" />
        <path
           d="m 654.98442,24.02551 q -0.93583,0.408366 -1.70152,0.765686 -0.74867,0.35732 -1.97377,0.74867 -1.03792,0.323289 -2.26302,0.544487 -1.20808,0.238214 -2.67139,0.238214 -2.75647,0 -5.0195,-0.765686 -2.24601,-0.782701 -3.9135,-2.433178 -1.63346,-1.616447 -2.55229,-4.100672 -0.91882,-2.501239 -0.91882,-5.802194 0,-3.130803 0.88479,-5.5980121 0.8848,-2.4672089 2.55229,-4.1687322 1.61645,-1.6504777 3.89649,-2.51825461 2.29705,-0.86777692 5.08755,-0.86777692 2.04183,0 4.06664,0.49344178 2.04183,0.49344175 4.52605,1.73555385 v 3.9985799 h -0.25522 q -2.09288,-1.7525691 -4.15172,-2.5522851 -2.05884,-0.7997159 -4.40695,-0.7997159 -1.92272,0 -3.4711,0.6295636 -1.53137,0.6125484 -2.73946,1.9227214 -1.17405,1.2761425 -1.83764,3.2328944 -0.64658,1.9397369 -0.64658,4.4920219 0,2.671391 0.71464,4.594113 0.73165,1.922721 1.87167,3.130803 1.19107,1.259127 2.77349,1.871676 1.59943,0.595533 3.36901,0.595533 2.43318,0 4.56009,-0.833747 2.1269,-0.833746 3.98156,-2.501239 h 0.23821 z"
           style="fill:#ffffff"
           id="path3123" />
        <path
           d="m 679.75857,25.863155 h -3.59021 l -2.48422,-7.061322 h -10.95781 l -2.48423,7.061322 h -3.42006 L 666.0443,0.52747248 h 4.49202 z m -7.11236,-9.953911 -4.44098,-12.4381361 -4.45799,12.4381361 z"
           style="fill:#ffffff"
           id="path3125" />
        <path
           d="M 699.63239,25.863155 H 683.60404 V 0.52747248 h 3.36902 V 22.868474 h 12.65933 z"
           style="fill:#ffffff"
           id="path3127" />
        <path
           d="m 735.22824,25.863155 h -3.59021 l -2.48423,-7.061322 h -10.95781 l -2.48422,7.061322 h -3.42007 l 9.22226,-25.33568252 h 4.49202 z m -7.11237,-9.953911 -4.44097,-12.4381361 -4.458,12.4381361 z"
           style="fill:#ffffff"
           id="path3129" />
        <path
           d="m 757.48419,18.631681 q 0,1.480325 -0.69763,2.92662 -0.68061,1.446295 -1.92272,2.450194 -1.36122,1.088975 -3.18185,1.701523 -1.80361,0.612549 -4.3559,0.612549 -2.73945,0 -4.93441,-0.510457 -2.17795,-0.510457 -4.44098,-1.514356 v -4.219778 h 0.23821 q 1.92272,1.599432 4.44098,2.467209 2.51825,0.867777 4.73023,0.867777 3.13081,0 4.86636,-1.174051 1.75257,-1.174052 1.75257,-3.130803 0,-1.684509 -0.83375,-2.484224 -0.81673,-0.799716 -2.50124,-1.242113 -1.27614,-0.340304 -2.77348,-0.561502 -1.48032,-0.221198 -3.14782,-0.561503 -3.36901,-0.71464 -5.00248,-2.433178 -1.61644,-1.735554 -1.61644,-4.5090373 0,-3.1818487 2.6884,-5.2066615 2.68841,-2.04182803 6.82311,-2.04182803 2.67139,0 4.90039,0.51045701 2.229,0.51045702 3.94753,1.25912732 v 3.9815646 h -0.23821 q -1.44629,-1.2250968 -3.81141,-2.0248128 -2.3481,-0.8167312 -4.81531,-0.8167312 -2.70542,0 -4.3559,1.1230054 -1.63346,1.1230055 -1.63346,2.8925898 0,1.5824167 0.81673,2.4842241 0.81673,0.9018076 2.87557,1.3782336 1.08898,0.238214 3.09677,0.578518 2.0078,0.340305 3.40305,0.697625 2.82453,0.74867 4.25381,2.263026 1.42928,1.514356 1.42928,4.236793 z"
           style="fill:#ffffff"
           id="path3131" />
        <path
           d="m 781.30548,18.631681 q 0,1.480325 -0.69763,2.92662 -0.68061,1.446295 -1.92272,2.450194 -1.36122,1.088975 -3.18185,1.701523 -1.80361,0.612549 -4.3559,0.612549 -2.73945,0 -4.93442,-0.510457 -2.17794,-0.510457 -4.44097,-1.514356 v -4.219778 h 0.23821 q 1.92272,1.599432 4.44098,2.467209 2.51825,0.867777 4.73023,0.867777 3.13081,0 4.86636,-1.174051 1.75257,-1.174052 1.75257,-3.130803 0,-1.684509 -0.83375,-2.484224 -0.81673,-0.799716 -2.50124,-1.242113 -1.27614,-0.340304 -2.77348,-0.561502 -1.48033,-0.221198 -3.14782,-0.561503 -3.36901,-0.71464 -5.00248,-2.433178 -1.61644,-1.735554 -1.61644,-4.5090373 0,-3.1818487 2.6884,-5.2066615 2.68841,-2.04182803 6.82311,-2.04182803 2.67139,0 4.90039,0.51045701 2.22899,0.51045702 3.94753,1.25912732 v 3.9815646 h -0.23821 q -1.44629,-1.2250968 -3.81141,-2.0248128 -2.3481,-0.8167312 -4.81531,-0.8167312 -2.70543,0 -4.3559,1.1230054 -1.63347,1.1230055 -1.63347,2.8925898 0,1.5824167 0.81674,2.4842241 0.81673,0.9018076 2.87557,1.3782336 1.08897,0.238214 3.09677,0.578518 2.0078,0.340305 3.40305,0.697625 2.82453,0.74867 4.25381,2.263026 1.42928,1.514356 1.42928,4.236793 z"
           style="fill:#ffffff"
           id="path3133" />
        <path
           d="m 805.60325,3.4370774 q 1.54839,1.7015234 2.36512,4.1687323 0.83375,2.4672093 0.83375,5.5980123 0,3.130803 -0.85076,5.615027 -0.83375,2.467209 -2.34811,4.117686 -1.5654,1.718539 -3.70932,2.586316 -2.1269,0.867777 -4.86635,0.867777 -2.6714,0 -4.86636,-0.884793 -2.17795,-0.884792 -3.70932,-2.5693 -1.53137,-1.684508 -2.36512,-4.134702 -0.81673,-2.450193 -0.81673,-5.598011 0,-3.096773 0.81673,-5.5469666 0.81673,-2.4672089 2.38213,-4.219778 1.49734,-1.6674929 3.70932,-2.55228501 2.229,-0.88479215158142 4.84935,-0.88479215158142 2.72243,0 4.88337,0.90180738158142 2.17795,0.88479218 3.6923,2.53526978 z m -0.30627,9.7667446 q 0,-4.9344182 -2.21198,-7.6058099 -2.21198,-2.6884069 -6.04041,-2.6884069 -3.86246,0 -6.07444,2.6884069 -2.19496,2.6713917 -2.19496,7.6058099 0,4.985463 2.24601,7.639839 2.24601,2.637362 6.02339,2.637362 3.77738,0 6.00638,-2.637362 2.24601,-2.654376 2.24601,-7.639839 z"
           style="fill:#ffffff"
           id="path3135" />
        <path
           d="m 833.71239,24.02551 q -0.93584,0.408366 -1.70152,0.765686 -0.74867,0.35732 -1.97377,0.74867 -1.03793,0.323289 -2.26303,0.544487 -1.20808,0.238214 -2.67139,0.238214 -2.75647,0 -5.01949,-0.765686 -2.24601,-0.782701 -3.9135,-2.433178 -1.63347,-1.616447 -2.55229,-4.100672 -0.91882,-2.501239 -0.91882,-5.802194 0,-3.130803 0.88479,-5.5980121 0.88479,-2.4672089 2.55228,-4.1687322 1.61645,-1.6504777 3.89649,-2.51825461 2.29706,-0.86777692 5.08756,-0.86777692 2.04183,0 4.06664,0.49344178 2.04183,0.49344175 4.52605,1.73555385 v 3.9985799 h -0.25523 q -2.09287,-1.7525691 -4.15171,-2.5522851 -2.05885,-0.7997159 -4.40695,-0.7997159 -1.92272,0 -3.47111,0.6295636 -1.53137,0.6125484 -2.73945,1.9227214 -1.17405,1.2761425 -1.83765,3.2328944 -0.64657,1.9397369 -0.64657,4.4920219 0,2.671391 0.71464,4.594113 0.73165,1.922721 1.87167,3.130803 1.19107,1.259127 2.77348,1.871676 1.59944,0.595533 3.36902,0.595533 2.43318,0 4.56008,-0.833747 2.12691,-0.833746 3.98157,-2.501239 h 0.23821 z"
           style="fill:#ffffff"
           id="path3137" />
        <path
           d="M 847.44371,25.863155 H 837.43876 V 23.27684 h 3.31797 V 3.113788 h -3.31797 V 0.52747248 h 10.00495 V 3.113788 h -3.31797 V 23.27684 h 3.31797 z"
           style="fill:#ffffff"
           id="path3139" />
        <path
           d="m 873.18777,25.863155 h -3.59021 l -2.48423,-7.061322 h -10.95781 l -2.48422,7.061322 h -3.42006 l 9.22225,-25.33568252 h 4.49203 z m -7.11236,-9.953911 -4.44098,-12.4381361 -4.45799,12.4381361 z"
           style="fill:#ffffff"
           id="path3141" />
        <path
           d="m 895.10336,3.5221536 h -9.05211 V 25.863155 h -3.36901 V 3.5221536 h -9.05211 V 0.52747248 h 21.47323 z"
           style="fill:#ffffff"
           id="path3143" />
        <path
           d="M 907.47344,25.863155 H 897.46848 V 23.27684 h 3.31797 V 3.113788 h -3.31797 V 0.52747248 h 10.00496 V 3.113788 h -3.31797 V 23.27684 h 3.31797 z"
           style="fill:#ffffff"
           id="path3145" />
        <path
           d="m 932.12852,3.4370774 q 1.54839,1.7015234 2.36512,4.1687323 0.83375,2.4672093 0.83375,5.5980123 0,3.130803 -0.85077,5.615027 -0.83374,2.467209 -2.3481,4.117686 -1.5654,1.718539 -3.70932,2.586316 -2.1269,0.867777 -4.86636,0.867777 -2.67139,0 -4.86635,-0.884793 -2.17795,-0.884792 -3.70932,-2.5693 -1.53137,-1.684508 -2.36512,-4.134702 -0.81673,-2.450193 -0.81673,-5.598011 0,-3.096773 0.81673,-5.5469666 0.81673,-2.4672089 2.38213,-4.219778 1.49734,-1.6674929 3.70932,-2.55228501 Q 920.9325,2.3841858e-7 923.55284,2.3841858e-7 q 2.72244,0 4.88338,0.90180738158142 2.17795,0.88479218 3.6923,2.53526978 z m -0.30627,9.7667446 q 0,-4.9344182 -2.21198,-7.6058099 -2.21198,-2.6884069 -6.04041,-2.6884069 -3.86246,0 -6.07444,2.6884069 -2.19496,2.6713917 -2.19496,7.6058099 0,4.985463 2.24601,7.639839 2.24601,2.637362 6.02339,2.637362 3.77738,0 6.00638,-2.637362 2.24601,-2.654376 2.24601,-7.639839 z"
           style="fill:#ffffff"
           id="path3147" />
        <path
           d="m 959.99951,25.863155 h -4.16873 L 943.81802,3.1988642 V 25.863155 H 940.6702 V 0.52747248 h 5.22368 L 956.85169,21.217997 V 0.52747248 h 3.14782 z"
           style="fill:#ffffff"
           id="path3149" />
      </g>
    </g>
  </g>
  <metadata
     id="metadata322">
    <rdf:RDF>
      <cc:Work
         rdf:about="">
        <dc:title>logo</dc:title>
      </cc:Work>
    </rdf:RDF>
  </metadata>
</svg>
