<?xml version="1.0" encoding="UTF-8" standalone="no"?>
<svg
   width="253.81538"
   height="60"
   viewBox="0 0 253.81539 60"
   version="1.1"
   id="svg63"
   sodipodi:docname="tplogo-1.svg"
   inkscape:version="1.1.1 (c3084ef, 2021-09-22)"
   xmlns:inkscape="http://www.inkscape.org/namespaces/inkscape"
   xmlns:sodipodi="http://sodipodi.sourceforge.net/DTD/sodipodi-0.dtd"
   xmlns="http://www.w3.org/2000/svg"
   xmlns:svg="http://www.w3.org/2000/svg"
   xmlns:rdf="http://www.w3.org/1999/02/22-rdf-syntax-ns#"
   xmlns:cc="http://creativecommons.org/ns#"
   xmlns:dc="http://purl.org/dc/elements/1.1/">
  <defs
     id="defs67" />
  <sodipodi:namedview
     id="namedview65"
     pagecolor="#6b6d69"
     bordercolor="#666666"
     borderopacity="1.0"
     inkscape:pageshadow="2"
     inkscape:pageopacity="0"
     inkscape:pagecheckerboard="0"
     showgrid="false"
     height="100px"
     inkscape:zoom="2.3476231"
     inkscape:cx="217.87995"
     inkscape:cy="-6.6024227"
     inkscape:window-width="2560"
     inkscape:window-height="1387"
     inkscape:window-x="0"
     inkscape:window-y="25"
     inkscape:window-maximized="1"
     inkscape:current-layer="logo"
     fit-margin-top="0"
     fit-margin-left="0"
     fit-margin-right="0"
     fit-margin-bottom="0" />
  <title
     id="title50">logo</title>
  <g
     id="Page-1"
     stroke="none"
     stroke-width="1"
     fill="none"
     fill-rule="evenodd"
     transform="translate(0.00981909,-11.488635)">
    <g
       id="logo"
       fill="#ffffff">
      <path
         id="Selection-2"
         fill="none"
         stroke="black"
         stroke-width="0.196574"
         d="m 51.301794,20.263155 c 0,0 5.304129,0 5.304129,0 0.824872,0.0024 3.586673,0.114089 4.190245,-0.152112 0.415185,-0.183805 1.518077,-1.326776 1.909483,-1.723961 0.843162,-0.859867 1.730235,-1.643677 2.6795,-2.338748 2.070423,-1.514808 5.284004,-3.40355 7.681822,-3.946516 0,0 2.926401,-0.500707 2.926401,-0.500707 0.362157,1.54438 -0.39505,2.435933 -1.333328,3.462703 -1.748531,1.90988 -4.113442,3.21552 -6.348492,4.183136 0,0 -3.475106,1.311986 -3.475106,1.311986 -0.848665,0.23662 -1.338836,0.01053 -2.178354,0.593667 -0.74257,0.515498 -3.107477,3.673969 -3.751291,4.601448 0,0 -6.856943,10.548681 -6.856943,10.548681 0,0 -3.584854,5.421171 -3.584854,5.421171 -0.821227,1.193673 -2.057637,2.615513 -2.650233,3.89158 0,0 5.852822,-3.361292 5.852822,-3.361292 0,0 8.413434,-4.865536 8.413434,-4.865536 0,0 8.413426,-5.207792 8.413426,-5.207792 0,0 8.413432,-4.512715 8.413432,-4.512715 0,0 6.716117,-2.697907 6.716117,-2.697907 0,0 5.5364,-3.971871 5.5364,-3.971871 3.976261,-2.562691 7.663537,-4.381724 12.073276,-5.719056 2.97031,-0.897899 9.43584,-2.157064 12.43724,-2.207765 0,0 2.19481,0 2.19481,0 0,0 1.4632,-0.194371 1.4632,-0.194371 0,0 4.02383,0.238734 4.02383,0.238734 1.43027,0.156337 3.41658,0.564086 4.75357,1.145083 1.52724,0.663385 1.9918,1.559163 3.65983,1.354236 0,0 -0.54868,0.633804 -0.54868,0.633804 2.21857,2.165515 3.00688,4.83173 3.56473,8.028241 0.18656,1.066906 -0.0256,1.303535 0.27618,2.535232 0.7572,-1.459874 2.98676,-2.190863 4.38961,-2.323966 0,0 0,0.633811 0,0.633811 0,0 -3.10931,1.983822 -3.10931,1.983822 -0.3969,0.268314 -1.00595,0.576764 -1.24921,1.030995 -0.2396,0.449999 -0.19753,1.113384 -0.27252,1.633107 0,0 -0.52127,3.591582 -0.52127,3.591582 -0.35665,2.862704 -1.55831,6.868372 -3.57753,8.697961 -0.51029,0.462684 -1.6205,1.035223 -2.24601,1.288746 -0.90171,0.365498 -2.33565,0.752118 -3.2593,0.371829 -1.94058,-0.798594 -1.52905,-3.585235 -0.96205,-5.288067 1.09557,-3.287356 2.81484,-4.966945 4.93283,-7.261331 1.83816,-1.990161 2.55511,-1.466212 2.58253,-3.724678 0,0 0,-0.845077 0,-0.845077 -0.003,-2.476078 -0.71146,-5.070471 -1.9808,-7.083864 -0.48285,-0.764797 -1.04069,-2.026074 -1.93873,-1.394383 -1.05351,0.739448 -2.03386,1.715509 -2.98129,2.623965 -3.05443,2.934535 -4.54874,4.721876 -7.1441,8.142329 -3.44768,4.540174 -6.85147,9.555709 -9.64984,14.666317 -4.08965,7.474707 -7.822667,15.088859 -13.851082,20.772005 -3.696418,3.483833 -10.306436,7.037389 -15.129519,7.062737 0,0 -3.109314,0 -3.109314,0 -3.224542,-0.0063 -7.884856,-2.055653 -10.39425,-4.375385 -1.230922,-1.136632 -2.224075,-2.27749 -2.617314,-4.073273 -0.151809,-0.688739 -0.442616,-1.390156 0.133518,-1.943686 0.38043,-0.363378 0.89804,-0.333804 1.355291,-0.433102 0.267045,-0.05911 0.835864,-0.280984 1.055345,-0.255636 0.629169,0.07185 0.566984,1.011987 0.762696,1.785226 0.318245,1.259172 1.197995,2.450732 2.008238,3.342284 2.355767,2.596506 7.017902,4.641593 10.257074,4.685956 0,0 1.829012,0 1.829012,0 1.898508,-0.0039 3.178804,-0.458458 4.938311,-1.208462 6.430794,-2.744385 10.994167,-9.259936 14.663159,-15.693088 5.128535,-8.991627 9.920525,-18.357193 16.397035,-26.178394 3.21357,-3.883128 6.8039,-7.93316 11.18987,-9.948676 -0.96571,-1.11339 -2.71973,-1.730291 -4.02382,-2.131708 -2.05763,-0.631691 -2.66852,-0.604224 -4.75541,-0.614789 0,0 -2.74351,-0.207048 -2.74351,-0.207048 0,0 -1.64612,0.198597 -1.64612,0.198597 0,0 -2.1948,0 -2.1948,0 0,0 -2.92641,0.287322 -2.92641,0.287322 0,0 -1.28032,0.319022 -1.28032,0.319022 -3.70921,0.616901 -8.137239,2.184523 -11.52272,4.054257 -4.707869,2.598611 -11.425813,8.619795 -15.241114,12.805035 0,0 -6.571629,7.702886 -6.571629,7.702886 0,0 -3.444016,4.563417 -3.444016,4.563417 -0.506641,0.327466 -2.107018,0.473247 -2.727046,0.48803 0.435301,-1.001415 2.141765,-3.247203 2.851417,-4.225386 2.077752,-2.864809 4.374986,-5.535257 6.758181,-8.055697 0,0 2.127124,-2.340871 2.127124,-2.340871 0,0 3.809834,-3.54721 3.809834,-3.54721 0,0 -4.572522,2.102128 -4.572522,2.102128 -2.796543,1.288744 -4.16282,2.216217 -6.767323,3.79229 0,0 -11.52274,7.009913 -11.52274,7.009913 0,0 -9.69374,5.427518 -9.69374,5.427518 0,0 -4.907219,2.719037 -4.907219,2.719037 0,0 -2.238712,2.8965 -2.238712,2.8965 0,0 -3.149545,3.940169 -3.149545,3.940169 -2.672178,3.133125 -6.456395,6.931753 -9.717509,9.205009 0,0 -3.764102,2.224669 -3.764102,2.224669 -2.344791,1.295084 -4.671275,2.478192 -7.316022,2.514111 -0.546875,0.0063 -1.69915,0.08029 -2.143592,-0.247193 -1.011449,-0.747892 -0.07314,-2.564803 0.442615,-3.335937 0.925472,-1.381704 3.678133,-3.591582 5.024283,-4.614126 3.884803,-2.945101 8.032996,-5.545823 12.22325,-7.871902 0,0 4.755418,-2.708473 4.755418,-2.708473 0.826715,-0.441555 1.95155,-0.902114 2.659376,-1.554941 0.883411,-0.815496 1.41565,-1.812687 2.123467,-2.784529 0,0 5.353503,-8.06204 5.353503,-8.06204 0,0 6.966692,-10.56347 6.966692,-10.56347 0,0 2.300888,-3.048616 2.300888,-3.048616 0,0 1.812552,-2.110581 1.812552,-2.110581 0,0 -2.19481,0.386621 -2.19481,0.386621 -1.627816,0.200708 -4.821265,0.07391 -6.401525,-0.386621 -0.634672,5.173988 -5.441293,9.357123 -8.916406,12.160668 -3.636072,2.932414 -6.127167,4.276094 -10.103436,6.373995 -3.292205,1.738743 -6.904499,3.414116 -10.427168,4.400741 0,0 -1.463206,0.312675 -1.463206,0.312675 -1.274818,0.344369 -4.268902,1.045786 -5.487022,1.047899 0,0 -1.280297,0 -1.280297,0 0,0 -1.829008,0.173242 -1.829008,0.173242 0,0 -2.56061,-0.173242 -2.56061,-0.173242 C 8.2268604,45.594358 8.1500386,45.442243 7.2227325,45.154913 4.1152469,44.199981 1.4851375,42.087288 0.46271999,38.430215 0.18837701,37.445695 0.10606762,37.392881 0.08960412,36.319627 0.07125722,34.908352 0.27433143,33.490737 0.76451024,32.182977 2.0722465,28.694919 6.1911661,25.42869 9.0517315,23.768117 14.024813,20.882178 18.939347,19.151878 24.415402,18.120882 c 1.455883,-0.274643 2.902618,-0.583102 4.38961,-0.604231 0,0 1.646107,0 1.646107,0 1.446742,-0.0039 2.814844,-0.58099 4.206716,-0.99719 1.785105,-0.530287 5.529091,-1.322543 7.316021,-1.326768 3.588516,-0.0063 8.654866,-0.323249 9.327938,5.070462 z m 21.765179,-7.394428 c -2.1308,0.669723 -5.379116,3.160591 -7.164221,4.736658 -0.830367,0.735221 -1.83266,1.366914 -2.346617,2.446505 0.757207,-0.111975 0.949266,-0.253522 1.646106,-0.494376 2.761802,-0.954932 3.7641,-1.60776 6.022924,-3.591576 0.859639,-0.756351 2.011917,-1.742976 1.841808,-3.097211 z m -25.057392,6.760625 c -1.331506,-2.135935 -3.411095,-3.156366 -5.669923,-3.169044 -1.843644,-0.0106 -2.72156,-0.08662 -4.57251,0.293661 -0.952918,0.19437 -2.679492,0.06338 -3.292221,0.973956 0,0 1.463206,0 1.463206,0 0,0 4.938327,0.711979 4.938327,0.711979 0,0 1.097396,0.302112 1.097396,0.302112 0,0 2.194817,0.289443 2.194817,0.289443 0,0 3.840908,0.597893 3.840908,0.597893 z m 205.580349,-2.53524 c 0.29447,0.925361 -0.0439,2.228893 -0.2524,3.169043 -0.66211,2.985239 -3.33245,7.189502 -5.78332,8.427537 -0.79746,0.369725 -1.54917,-0.05705 -2.37771,0 0,0 1.09741,0.657046 1.09741,0.657046 0,0 -3.47512,2.119032 -3.47512,2.119032 0,0 -2.19481,0.627473 -2.19481,0.627473 0,0 1.09741,0 1.09741,0 0,0 -1.74305,2.114805 -1.74305,2.114805 0,0 -1.22178,1.622549 -1.22178,1.622549 0,0 -2.70509,1.121842 -2.70509,1.121842 0,0 3.10931,-0.845077 3.10931,-0.845077 -0.78649,1.01198 -1.69366,1.15564 -2.74351,1.690155 0,0 1.829,-0.422539 1.829,-0.422539 -0.62552,2.526779 -2.44538,5.241591 -4.57251,6.243014 0,0 -3.47512,1.151414 -3.47512,1.151414 0,0 3.47512,-0.845077 3.47512,-0.845077 -0.92182,1.692268 -4.25061,2.600723 -5.85282,3.169043 0,0 4.02382,-0.845077 4.02382,-0.845077 0,0 -4.20672,1.90142 -4.20672,1.90142 0,0 1.09739,0 1.09739,0 0,0 0,0.422539 0,0.422539 0,0 -1.6461,-0.211266 -1.6461,-0.211266 0,0 1.46321,1.478878 1.46321,1.478878 0,0 -1.829,-0.845077 -1.829,-0.845077 0,0 0.54868,1.478889 0.54868,1.478889 0,0 -1.09739,-1.267616 -1.09739,-1.267616 0,0 -0.1829,1.901419 -0.1829,1.901419 0,0 -0.36581,-2.112692 -0.36581,-2.112692 -1.15776,1.398607 -1.15958,3.65496 -1.49429,4.436658 -0.56517,1.32255 -1.80888,2.064105 -2.16372,4.225394 0,0 -5.5931,4.020451 -5.5931,4.020451 -4.83406,3.078196 -10.12172,6.464843 -15.80628,6.543021 -2.97213,0.04011 -4.98952,-0.249305 -7.68182,-1.814807 -0.99315,-0.576764 -2.41063,-1.590857 -2.99044,-2.719038 -0.36761,-0.716206 -0.36031,-2.370441 -0.48468,-3.28313 0,0 -1.28029,0 -1.28029,0 0.51942,-0.399298 1.01508,-0.483806 1.37723,-0.910569 0,0 1.80889,-3.737356 1.80889,-3.737356 1.49613,-2.507771 3.16053,-4.675392 5.5931,-5.972588 1.00961,-0.538739 3.07456,-1.430289 4.16283,-0.842964 1.11934,0.600006 0.44811,3.357074 0,4.280321 -1.12302,2.309176 -3.54279,4.03524 -5.62603,4.996519 -1.05899,0.490144 -2.80753,0.680288 -2.91544,2.190862 -0.13717,1.916218 0.87062,2.919747 2.15273,3.883137 2.21677,1.664799 3.97261,2.406352 6.61553,2.623965 1.46687,0.120418 4.08051,-0.555644 5.48701,-1.123955 3.80252,-1.531704 6.65029,-3.494397 9.98821,-6.031741 0.66942,-0.507047 1.79792,-1.45776 2.44904,-1.781001 0.81026,-0.403522 1.25287,-0.247183 1.66806,-0.809165 0.35483,-0.479579 0.64014,-1.998604 0.83219,-2.681006 0,0 1.88938,-5.915543 1.88938,-5.915543 0,0 -1.46321,0 -1.46321,0 0,0 0.73161,-0.211266 0.73161,-0.211266 -1.0718,-0.564095 -1.62051,-0.995077 -2.01193,-2.323966 0,0 2.19482,1.267616 2.19482,1.267616 -1.42298,-1.685929 -1.84546,-2.727488 -2.01191,-5.070462 0,0 1.22178,1.690153 1.22178,1.690153 0,0 1.70463,2.112693 1.70463,2.112693 0,0 -0.9145,-3.591582 -0.9145,-3.591582 0,0 1.28031,2.323966 1.28031,2.323966 0,0 -0.91452,-4.647924 -0.91452,-4.647924 0,0 1.46321,2.535231 1.46321,2.535231 -0.2085,-0.992964 -0.32922,-2.636641 0,-3.591581 0,0 0.18291,0.845078 0.18291,0.845078 0.0421,-2.252128 0.69502,-4.506376 1.82901,-6.338079 0,0 0.36578,0.422539 0.36578,0.422539 0.75357,-2.222555 2.76913,-3.855669 4.57254,-4.859197 -0.59626,1.466211 -2.5021,3.361292 -2.37773,5.91554 1.60587,-5.347228 4.23782,-8.074716 9.14505,-8.87331 0,0 -0.1829,0.633805 -0.1829,0.633805 2.23504,-1.426067 2.82946,-1.081698 5.12121,-1.905646 1.24922,-0.450006 1.19251,-0.593668 2.1948,-1.100722 0,0 2.37772,-1.092261 2.37772,-1.092261 0.99863,-0.471127 2.67218,-1.206348 3.45864,-1.960581 1.27849,-1.225357 1.25105,-2.205652 2.02838,-3.659186 z M 28.256318,18.573001 c -6.240584,0.331692 -12.481154,2.121145 -17.924273,5.735967 -1.4101625,0.935925 -4.5652037,3.092981 -5.1212285,4.827505 0,0 2.7746115,-1.421841 2.7746115,-1.421841 0,0 4.175625,-2.078894 4.175625,-2.078894 0,0 9.145037,-4.123983 9.145037,-4.123983 0,0 4.389609,-1.821137 4.389609,-1.821137 0,0 2.560619,-1.117617 2.560619,-1.117617 z m 19.936164,2.535232 c -1.719268,-0.0063 -3.434873,-0.45212 -5.121221,-0.777472 0,0 -2.194801,-0.314789 -2.194801,-0.314789 0,0 -1.280304,-0.346483 -1.280304,-0.346483 0,0 -2.194818,-0.293659 -2.194818,-0.293659 0,0 -1.097396,-0.302121 -1.097396,-0.302121 0,0 -2.743511,-0.289442 -2.743511,-0.289442 0,0 -2.743511,0 -2.743511,0 -1.653421,0.02326 -5.569332,1.979597 -7.316029,2.700028 0,0 -12.386034,5.5923 -12.386034,5.5923 -1.64428,0.788037 -5.2711942,2.858472 -6.818536,3.11622 -0.4554253,1.700719 -1.0754531,2.260588 -1.0973963,4.225394 -0.078665,7.05851 5.4120188,10.066989 10.7911273,10.140924 6.275331,0.08452 12.3458,-2.482409 17.924272,-5.615534 3.431211,-1.926781 6.405179,-3.728909 9.47425,-6.38456 2.322839,-2.009177 5.931471,-6.029635 6.677703,-9.357122 0.151817,-0.676061 0.126205,-1.400719 0.126205,-2.093684 z m 200.642028,3.169043 c -1.3937,0.378168 -4.44631,1.950015 -5.85282,2.683117 -5.1139,2.661998 -8.04763,4.704973 -12.07145,9.359234 -1.28029,1.481002 -3.93967,4.880327 -4.57252,6.760625 0,0 3.87202,-5.281735 3.87202,-5.281735 1.94057,-2.478191 4.4829,-4.975398 6.91913,-6.790197 1.99728,-1.48734 4.92368,-3.131011 7.13313,-4.193701 1.22177,-0.587328 3.71104,-1.54438 4.57251,-2.537343 z m -10.97403,2.95777 c 0,0 -0.18291,0 -0.18291,0 0,0 0.18291,0.211273 0.18291,0.211273 0,0 0,-0.211273 0,-0.211273 z m -108.09432,3.591581 c -0.81206,0.483805 -1.02239,1.005641 -1.61864,1.761986 -1.55101,1.962692 -2.51672,3.388757 -3.01603,6.054981 -0.15548,0.830286 -0.39874,3.120446 0.47553,3.538767 0.7883,0.378168 1.70464,-1.631002 1.9735,-2.271151 1.06449,-2.52678 1.86558,-6.293715 2.18564,-9.084583 z m 105.53371,2.112693 c 0,0 -0.18291,0 -0.18291,0 0,0 0.18291,0.211273 0.18291,0.211273 0,0 0,-0.211273 0,-0.211273 z m -0.18291,0.211273 c -1.4632,1.132399 -2.6045,2.579594 -3.84091,4.014111 -2.76728,3.211301 -5.06452,6.938092 -6.81305,10.986011 -0.57613,1.333111 -1.68634,4.113414 -1.96618,5.493007 1.17605,-0.68029 1.26932,-1.660582 1.7284,-2.957772 0,0 1.61137,-3.802851 1.61137,-3.802851 1.57111,-3.51763 3.72934,-6.585262 6.01926,-9.507121 0.98582,-1.259164 2.65937,-2.754955 3.26111,-4.225385 z m -10.42534,13.098702 c 0,0 -0.1829,0 -0.1829,0 0,0 0.1829,0.211266 0.1829,0.211266 0,0 0,-0.211266 0,-0.211266 z m 2.01192,2.535228 c 0,0 -0.18292,0 -0.18292,0 0,0 0.18292,0.211266 0.18292,0.211266 0,0 0,-0.211266 0,-0.211266 z m -95.29126,4.859199 c -2.31369,1.907756 -5.69734,4.719753 -6.70879,7.816966 -0.65844,2.021845 -0.60175,4.508489 1.77048,4.806374 1.65526,0.207048 4.46825,-1.519026 5.85281,-2.514102 1.68818,-1.212687 7.03619,-5.27751 8.29089,-6.676116 0,0 2.57707,-3.431011 2.57707,-3.431011 1.15593,-1.652129 2.54049,-3.065519 4.3128,-3.73313 0.35848,-0.133104 1.23824,-0.477473 1.58576,-0.331691 0.45358,0.190137 0.28531,0.750005 0.10424,1.104938 -0.27801,0.549297 -1.59672,2.015508 -2.05397,2.499314 -2.98311,3.154252 -4.59081,3.760595 -6.26069,8.427536 -0.45908,1.284519 -0.97669,3.591583 0.24326,4.519053 0.67856,0.528175 1.47051,0.312676 2.1747,0 0.95472,-0.439441 3.29035,-2.023959 4.2067,-2.704246 0,0 4.86151,-3.69088 4.86151,-3.69088 3.21174,-2.693682 7.93971,-6.72893 11.41665,-8.75289 1.52905,-0.889449 2.83313,-1.565509 4.57252,-1.565509 0.59809,0 1.42663,-0.06972 1.71926,0.682399 0.65296,1.675373 -0.91816,3.85567 -1.53637,5.233147 0,0 1.64612,-0.965502 1.64612,-0.965502 2.21126,-1.271843 7.21543,-2.636643 8.00007,1.388041 0.053,0.405636 0.0677,1.276067 0,1.690154 -0.0896,1.052125 -1.30591,3.46059 -1.74852,4.525393 -0.31826,0.671836 -0.57614,1.504236 0,2.093676 0.70416,0.638037 2.26795,0.188032 3.07638,0 0,0 7.86473,-2.604948 7.86473,-2.604948 0,0 0.1829,0.633804 0.1829,0.633804 -3.00323,1.309873 -9.33891,3.549332 -12.43725,3.568347 0,0 -1.27665,0 -1.27665,0 -1.11935,-0.266201 -1.13215,-1.244382 -0.85963,-2.300723 0.45907,-1.772558 1.78878,-3.433132 2.05581,-5.281737 0.21764,-1.516921 -0.53773,-3.219743 -1.94789,-3.532428 -1.33884,-0.297886 -3.51171,1.533816 -4.55607,2.389457 -1.77413,1.453535 -2.34112,2.026072 -3.86468,3.7775 0,0 -3.102,3.236648 -3.102,3.236648 -0.62187,0.433104 -1.9296,0.62324 -2.72705,0.88944 -0.0366,-1.30564 1.2291,-2.180297 1.98814,-3.019036 2.08323,-2.296499 3.87748,-3.58313 5.25107,-6.699359 0.38043,-0.861979 1.6077,-3.207067 0.67307,-4.069048 -0.4042,-0.373941 -1.31323,0.331694 -1.69366,0.583103 0,0 -4.54141,3.437357 -4.54141,3.437357 -5.00782,4.045805 -11.5447,9.760644 -17.22375,12.061369 -1.37909,0.557755 -5.1633,1.208463 -5.97903,-0.612684 -0.8121,-1.819025 0.57979,-4.246513 1.4065,-5.695822 -1.15411,0.56832 -2.02838,1.650017 -3.10931,2.383119 -3.13127,2.123257 -6.05218,3.695105 -9.69372,4.197926 -0.59627,0.08451 -1.02425,0.20916 -1.64611,0.158451 -1.4998,-0.120427 -2.92094,-1.339447 -3.07274,-3.147915 -0.0677,-0.794367 0.21034,-1.550719 0.32922,-2.323965 -1.78328,1.512695 -2.94653,2.440167 -4.93832,3.600032 -1.88204,1.111278 -6.31006,3.574679 -7.3709,0 -0.18471,-0.633803 -0.13534,-2.435933 -0.12803,-3.177494 0.0183,-1.694381 0.52127,-2.792981 1.25471,-4.225385 1.71379,-3.342284 5.73943,-6.521885 8.98773,-7.476824 2.41063,-0.709868 7.33432,-0.71198 7.13313,3.462703 0.42433,0.513385 0.10791,0.887335 -0.37677,1.176778 -0.47921,0.287322 -1.81255,0.659159 -2.36674,0.724649 -0.16826,-2.085232 -1.35896,-4.149328 -3.29221,-4.326795 -1.50344,-0.139444 -2.95019,0.929584 -4.00004,2.064104 -1.74487,1.884516 -3.3233,3.785944 -4.0476,6.488078 -0.53406,1.859168 -0.80293,2.381006 0,4.225394 0.28716,0.587327 0.65662,1.25705 1.28213,1.343671 0.79929,0.109863 3.09469,-1.738751 3.8391,-2.277483 3.17333,-2.300724 5.93329,-5.214131 8.85605,-7.884579 1.40651,-1.284519 1.551,-1.950016 3.39827,-2.465513 0.70418,-0.196476 0.92183,-0.291548 1.64612,-0.124646 0,0 0,0.42254 0,0.42254 z M 40.144857,49.840866 c -1.225443,0.268313 -4.543253,2.516223 -5.852823,3.31693 -4.054917,2.480303 -7.722073,4.626802 -11.447752,7.793733 -1.013268,0.861979 -2.719733,2.558472 -3.453162,3.678203 -0.303625,0.464787 -0.751729,1.242259 -0.449939,1.835926 0.290808,0.572539 1.135813,0.494369 1.633306,0.488031 1.713771,-0.02326 3.277568,-1.12606 4.755411,-2.026073 3.92139,-2.389457 8.307355,-6.895832 11.327043,-10.647979 0.898032,-1.115503 2.933727,-3.300025 3.487916,-4.438771 z m 152.722053,8.450779 c 1.63696,-0.384507 4.44997,-2.989463 5.29863,-4.704972 0.2652,-0.534507 1.20532,-3.585235 -0.18656,-3.027487 -0.4664,0.188032 -1.26933,1.176768 -1.63513,1.605645 -1.15776,1.364802 -3.15321,4.288773 -3.47694,6.126814 z"
         style="fill:#000000;stroke:#303030;stroke-opacity:0.0745098" />
    </g>
  </g>
  <metadata
     id="metadata322">
    <rdf:RDF>
      <cc:Work
         rdf:about="">
        <dc:title>logo</dc:title>
      </cc:Work>
    </rdf:RDF>
  </metadata>
</svg>
