<?xml version="1.0" encoding="UTF-8" standalone="no"?>
<svg
   width="600"
   height="100"
   viewBox="0 0 600 100"
   version="1.1"
   id="svg63"
   sodipodi:docname="tplogo.svg"
   inkscape:version="1.1.1 (c3084ef, 2021-09-22)"
   xmlns:inkscape="http://www.inkscape.org/namespaces/inkscape"
   xmlns:sodipodi="http://sodipodi.sourceforge.net/DTD/sodipodi-0.dtd"
   xmlns="http://www.w3.org/2000/svg"
   xmlns:svg="http://www.w3.org/2000/svg"
   xmlns:rdf="http://www.w3.org/1999/02/22-rdf-syntax-ns#"
   xmlns:cc="http://creativecommons.org/ns#"
   xmlns:dc="http://purl.org/dc/elements/1.1/">
  <defs
     id="defs67" />
  <sodipodi:namedview
     id="namedview65"
     pagecolor="#000000"
     bordercolor="#666666"
     borderopacity="1.0"
     inkscape:pageshadow="2"
     inkscape:pageopacity="0"
     inkscape:pagecheckerboard="0"
     showgrid="false"
     height="100px"
     inkscape:zoom="2.3476231"
     inkscape:cx="327.56536"
     inkscape:cy="-0.42596276"
     inkscape:window-width="1795"
     inkscape:window-height="1110"
     inkscape:window-x="443"
     inkscape:window-y="174"
     inkscape:window-maximized="0"
     inkscape:current-layer="logo" />
  <title
     id="title50">logo</title>
  <g
     id="Page-1"
     stroke="none"
     stroke-width="1"
     fill="none"
     fill-rule="evenodd">
    <g
       id="logo"
       fill="#ffffff">
      <path
         id="Selection"
         fill="none"
         stroke="#000000"
         stroke-width="0.189022"
         d="m 43.922025,19.552841 c 0,0 4.079083,-6.804777 4.079083,-6.804777 0.50847,-0.888404 1.177608,-2.309847 1.977171,-2.9014841 0,0 2.260695,-1.1152311 2.260695,-1.1152311 1.960158,-0.971568 3.988363,-1.8051585 6.048694,-2.5404428 5.551569,-1.98284 10.766672,-3.2417244 16.633908,-3.8692744 0,0 4.158475,-0.3478024 4.158475,-0.3478024 0,0 1.512173,0 1.512173,0 1.413884,-0.01703 3.455316,-0.6993812 4.14146,1.1379125 0.194695,0.6483399 0.01892,1.8826498 0,2.6425169 0,0 0,2.0792374 0,2.0792374 0,0 -0.154991,1.8902214 -0.154991,1.8902214 -0.345911,4.7293196 -1.219197,9.4283976 -2.529113,13.9875986 -0.226822,0.788222 -0.676699,2.570697 -1.202183,3.133982 -0.744745,0.803341 -2.066,0.701268 -2.710563,-0.173901 -0.230607,-0.311886 -0.336458,-0.684257 -0.342134,-1.069863 0,0 1.283458,-4.914561 1.283458,-4.914561 1.20596,-4.415545 2.08113,-10.55119 2.08113,-15.121733 -7.08264,0 -15.306976,1.6785098 -21.92651,4.1943897 0,0 -4.725539,1.9847303 -4.725539,1.9847303 -0.688044,0.315665 -1.472478,0.567064 -2.045218,1.07742 -0.66157,0.59164 -1.453572,2.134055 -1.924239,2.950628 0,0 -3.26629,5.67065 -3.26629,5.67065 -0.516031,0.907305 -1.523519,2.918495 -2.408142,3.368367 -1.621809,0.827913 -2.542335,-0.912976 -3.207697,-2.045214 -0.432855,-0.737187 -0.877055,-1.449794 -1.136021,-2.268262 -2.145391,1.247543 -5.353088,4.595117 -7.182821,6.426738 -6.955991,6.959775 -12.762741,17.064873 -15.685014,26.463029 0,0 -1.967719,7.93891 -1.967719,7.93891 0,0 -0.682367,4.158476 -0.682367,4.158476 0,0 3.632999,-5.481629 3.632999,-5.481629 0,0 5.708452,-7.938907 5.708452,-7.938907 6.591183,-8.447377 14.703993,-16.388176 23.359292,-22.710951 3.366481,-2.459173 6.810453,-4.765235 10.396196,-6.889841 1.0226,-0.606756 2.243681,-1.532964 3.374033,-0.561392 0.347802,0.296764 0.504686,0.604869 0.567064,1.052849 0.264634,1.867534 -2.022528,2.667097 -3.374033,3.477998 -3.415622,2.048996 -8.022081,5.249132 -11.152278,7.713973 -13.225847,10.411313 -23.894229,23.073873 -31.755634,37.953657 6.50423,0 15.478981,-2.149176 21.548465,-4.500605 0,0 5.859675,-2.542341 5.859675,-2.542341 1.043399,-0.508469 1.899664,-1.141691 3.024347,-1.463028 0,0 -3.712391,-6.804779 -3.712391,-6.804779 -0.841143,-2.075458 0.935656,-2.644414 2.578255,-2.646302 0,0 12.475433,0 12.475433,0 2.120817,-0.0038 2.510208,-0.998034 3.969448,-2.457282 2.565025,-2.565023 4.888099,-5.362546 6.993803,-8.316953 0.767428,-1.075533 2.311736,-3.920309 3.591411,-4.113111 1.661504,-0.251399 2.720024,1.258883 1.311809,3.546046 -1.937467,3.14721 -5.234009,7.311357 -7.755554,10.018147 0,0 -3.007333,3.024347 -3.007333,3.024347 -0.582194,0.582187 -1.313702,1.389309 -2.079238,1.699305 -0.500909,0.204143 -0.984805,0.189021 -1.512173,0.190911 0,0 -11.719342,0 -11.719342,0 0,0 2.428924,4.347498 2.428924,4.347498 0.432863,0.759867 0.945109,1.536746 0.703157,2.457282 -0.251396,0.954559 -1.209735,1.410101 -1.997953,1.861863 0,0 -5.292603,2.720022 -5.292603,2.720022 -5.00341,2.461063 -11.891355,4.523287 -17.389998,5.515652 -2.30606,0.417735 -6.419171,1.028277 -8.694996,1.05474 -0.801447,0.0095 -2.489409,-0.08884 -3.135865,0.374262 -0.504686,0.362921 -1.682295,3.241722 -1.99607,3.973235 0,0 -4.1925015,11.152276 -4.1925015,11.152276 0,0 -1.2607684,4.158477 -1.2607684,4.158477 -0.1814661,0.633225 -0.4101807,1.737109 -0.7560884,2.247469 -0.7371865,1.084985 -2.2928371,1.14736 -3.0073364,0 -0.7012717,-1.126572 0.4101773,-3.84092 0.7655372,-5.082793 1.3666271,-4.770906 3.124528,-9.428398 5.0771168,-13.987603 0,0 2.1945487,-4.914561 2.1945487,-4.914561 0,0 0.262742,-3.402391 0.262742,-3.402391 0.01703,-3.519582 0.826022,-8.625057 1.591557,-12.097384 2.130271,-9.641995 6.449421,-19.128993 12.371467,-27.030097 3.443972,-4.593223 7.145018,-8.640177 11.554889,-12.333661 1.209744,-1.011267 3.774769,-3.66324 5.441942,-2.459171 0.478219,0.345911 0.931872,1.228641 1.226749,1.750341 0.317552,0.563286 0.506578,0.8884 0.703158,1.512171 z M 50.537782,74.4693 c 0,0 5.292603,-0.100182 5.292603,-0.100182 0,0 9.829132,0 9.829132,0 0,0 30.243458,0 30.243458,0 0.812793,0.002 1.740888,-0.02645 2.415695,0.51036 1.045291,0.833586 0.826022,2.379781 -0.344018,2.973312 -0.635111,0.323223 -1.379856,0.294872 -2.071677,0.296764 0,0 -43.853019,0 -43.853019,0 -0.803348,-0.002 -1.750341,0.02645 -2.413811,-0.51036 -0.903521,-0.729622 -1.022609,-2.546121 0.901637,-3.169894 z M 21.995514,84.676471 c 0,0 6.426739,-0.100182 6.426739,-0.100182 0,0 11.719334,0 11.719334,0 0.744746,0.002 1.773023,-0.0057 2.421371,0.404507 1.035839,0.652124 1.035839,2.319294 0,2.971418 -0.648348,0.410177 -1.676625,0.402619 -2.421371,0.404507 0,0 -16.633899,0 -16.633899,0 -0.831699,-0.002 -1.733328,0.0208 -2.432709,-0.51036 -1.266445,-0.964007 -0.856264,-2.597155 0.920535,-3.16989 z m 30.054442,-0.0775 c 0,0 5.292603,0 5.292603,0 0,0 9.451086,0 9.451086,0 0,0 29.10933,0 29.10933,0 0.812793,-0.0208 1.740888,-0.04914 2.415695,0.487675 1.045291,0.833587 0.826022,2.379785 -0.344018,2.973313 -0.635111,0.323227 -1.379856,0.294875 -2.071677,0.296763 0,0 -42.340846,0 -42.340846,0 -0.807123,-0.002 -1.761678,0.03025 -2.436493,-0.483893 -1.315585,-0.998038 -0.860049,-2.687888 0.92432,-3.273858 z m -37.048245,10.20717 c 0,0 9.262059,0 9.262059,0 0,0 17.579017,0 17.579017,0 0,0 54.060188,0 54.060188,0 0.812793,-0.0208 1.740888,-0.04914 2.415695,0.487676 1.045291,0.833586 0.826022,2.379781 -0.344018,2.973312 -0.635111,0.323227 -1.379856,0.294873 -2.071677,0.296764 0,0 -62.755183,0 -62.755183,0 0,0 -16.633908,0 -16.633908,0 -0.807123,-0.002 -1.761677,0.03025 -2.436484,-0.483896 -1.315594,-0.998036 -0.860049,-2.687889 0.924311,-3.273856 z"
         style="fill:#ffffff" />
      <text
         xml:space="preserve"
         style="font-style:normal;font-weight:normal;font-size:40px;line-height:0.85;font-family:sans-serif;fill:#000000;fill-opacity:1;stroke:none"
         x="119.11624"
         y="29.913551"
         id="text1005"><tspan
           sodipodi:role="line"
           id="tspan1003"
           x="119.11624"
           y="29.913551"
           style="fill:#ffffff">THOMAS PAINE</tspan><tspan
           sodipodi:role="line"
           x="119.11624"
           y="63.913551"
           id="tspan1007"
           style="fill:#ffffff">NATIONAL HISTORICAL</tspan><tspan
           sodipodi:role="line"
           x="119.11624"
           y="97.913551"
           id="tspan1009"
           style="fill:#ffffff">ASSOCIATION</tspan></text>
    </g>
  </g>
  <metadata
     id="metadata322">
    <rdf:RDF>
      <cc:Work
         rdf:about="">
        <dc:title>logo</dc:title>
      </cc:Work>
    </rdf:RDF>
  </metadata>
</svg>
