<?xml version="1.0" encoding="UTF-8" standalone="no"?>
<svg
   width="534.039mm"
   height="172.134mm"
   viewBox="0 0 1514 488"
   version="1.1"
   id="svg49"
   sodipodi:docname="tpaine-sig.svg"
   inkscape:version="1.1.1 (c3084ef, 2021-09-22)"
   xmlns:inkscape="http://www.inkscape.org/namespaces/inkscape"
   xmlns:sodipodi="http://sodipodi.sourceforge.net/DTD/sodipodi-0.dtd"
   xmlns="http://www.w3.org/2000/svg"
   xmlns:svg="http://www.w3.org/2000/svg">
  <defs
     id="defs53" />
  <sodipodi:namedview
     id="namedview51"
     pagecolor="#00ffff"
     bordercolor="#666666"
     borderopacity="1.0"
     inkscape:pageshadow="2"
     inkscape:pageopacity="0"
     inkscape:pagecheckerboard="false"
     inkscape:document-units="mm"
     showgrid="false"
     inkscape:zoom="0.77002034"
     inkscape:cx="1083.7376"
     inkscape:cy="343.49742"
     inkscape:window-width="2560"
     inkscape:window-height="1387"
     inkscape:window-x="0"
     inkscape:window-y="25"
     inkscape:window-maximized="1"
     inkscape:current-layer="svg49" />
  <path
     id="Selection"
     fill="none"
     stroke="black"
     stroke-width="1"
     d="M 339.00,115.00            C 339.00,115.00 368.00,115.00 368.00,115.00              372.51,115.01 387.61,115.54 390.91,114.28              393.18,113.41 399.21,108.00 401.35,106.12              405.96,102.05 410.81,98.34 416.00,95.05              427.32,87.88 444.89,78.94 458.00,76.37              458.00,76.37 474.00,74.00 474.00,74.00              475.98,81.31 471.84,85.53 466.71,90.39              457.15,99.43 444.22,105.61 432.00,110.19              432.00,110.19 413.00,116.40 413.00,116.40              408.36,117.52 405.68,116.45 401.09,119.21              397.03,121.65 384.10,136.60 380.58,140.99              380.58,140.99 343.09,190.92 343.09,190.92              343.09,190.92 323.49,216.58 323.49,216.58              319.00,222.23 312.24,228.96 309.00,235.00              309.00,235.00 341.00,219.09 341.00,219.09              341.00,219.09 387.00,196.06 387.00,196.06              387.00,196.06 433.00,171.41 433.00,171.41              433.00,171.41 479.00,150.05 479.00,150.05              479.00,150.05 515.72,137.28 515.72,137.28              515.72,137.28 545.99,118.48 545.99,118.48              567.73,106.35 587.89,97.74 612.00,91.41              628.24,87.16 663.59,81.20 680.00,80.96              680.00,80.96 692.00,80.96 692.00,80.96              692.00,80.96 700.00,80.04 700.00,80.04              700.00,80.04 722.00,81.17 722.00,81.17              729.82,81.91 740.68,83.84 747.99,86.59              756.34,89.73 758.88,93.97 768.00,93.00              768.00,93.00 765.00,96.00 765.00,96.00              777.13,106.25 781.44,118.87 784.49,134.00              785.51,139.05 784.35,140.17 786.00,146.00              790.14,139.09 802.33,135.63 810.00,135.00              810.00,135.00 810.00,138.00 810.00,138.00              810.00,138.00 793.00,147.39 793.00,147.39              790.83,148.66 787.50,150.12 786.17,152.27              784.86,154.40 785.09,157.54 784.68,160.00              784.68,160.00 781.83,177.00 781.83,177.00              779.88,190.55 773.31,209.51 762.27,218.17              759.48,220.36 753.41,223.07 749.99,224.27              745.06,226.00 737.22,227.83 732.17,226.03              721.56,222.25 723.81,209.06 726.91,201.00              732.90,185.44 742.30,177.49 753.88,166.63              763.93,157.21 767.85,159.69 768.00,149.00              768.00,149.00 768.00,145.00 768.00,145.00              767.98,133.28 764.11,121.00 757.17,111.47              754.53,107.85 751.48,101.88 746.57,104.87              740.81,108.37 735.45,112.99 730.27,117.29              713.57,131.18 705.40,139.64 691.21,155.83              672.36,177.32 653.75,201.06 638.45,225.25              616.09,260.63 595.68,296.67 562.72,323.57              542.51,340.06 506.37,356.88 480.00,357.00              480.00,357.00 463.00,357.00 463.00,357.00              445.37,356.97 419.89,347.27 406.17,336.29              399.44,330.91 394.01,325.51 391.86,317.01              391.03,313.75 389.44,310.43 392.59,307.81              394.67,306.09 397.50,306.23 400.00,305.76              401.46,305.48 404.57,304.43 405.77,304.55              409.21,304.89 408.87,309.34 409.94,313.00              411.68,318.96 416.49,324.60 420.92,328.82              433.80,341.11 459.29,350.79 477.00,351.00              477.00,351.00 487.00,351.00 487.00,351.00              497.38,350.98 504.38,348.83 514.00,345.28              549.16,332.29 574.11,301.45 594.17,271.00              622.21,228.44 648.41,184.11 683.82,147.09              701.39,128.71 721.02,109.54 745.00,100.00              739.72,94.73 730.13,91.81 723.00,89.91              711.75,86.92 708.41,87.05 697.00,87.00              697.00,87.00 682.00,86.02 682.00,86.02              682.00,86.02 673.00,86.96 673.00,86.96              673.00,86.96 661.00,86.96 661.00,86.96              661.00,86.96 645.00,88.32 645.00,88.32              645.00,88.32 638.00,89.83 638.00,89.83              617.72,92.75 593.51,100.17 575.00,109.02              549.26,121.32 512.53,149.82 491.67,169.63              491.67,169.63 455.74,206.09 455.74,206.09              455.74,206.09 436.91,227.69 436.91,227.69              434.14,229.24 425.39,229.93 422.00,230.00              424.38,225.26 433.71,214.63 437.59,210.00              448.95,196.44 461.51,183.80 474.54,171.87              474.54,171.87 486.17,160.79 486.17,160.79              486.17,160.79 507.00,144.00 507.00,144.00              507.00,144.00 482.00,153.95 482.00,153.95              466.71,160.05 459.24,164.44 445.00,171.90              445.00,171.90 382.00,205.08 382.00,205.08              382.00,205.08 329.00,230.77 329.00,230.77              329.00,230.77 302.17,243.64 302.17,243.64              302.17,243.64 289.93,257.35 289.93,257.35              289.93,257.35 272.71,276.00 272.71,276.00              258.10,290.83 237.41,308.81 219.58,319.57              219.58,319.57 199.00,330.10 199.00,330.10              186.18,336.23 173.46,341.83 159.00,342.00              156.01,342.03 149.71,342.38 147.28,340.83              141.75,337.29 146.88,328.69 149.70,325.04              154.76,318.50 169.81,308.04 177.17,303.20              198.41,289.26 221.09,276.95 244.00,265.94              244.00,265.94 270.00,253.12 270.00,253.12              274.52,251.03 280.67,248.85 284.54,245.76              289.37,241.90 292.28,237.18 296.15,232.58              296.15,232.58 325.42,194.42 325.42,194.42              325.42,194.42 363.51,144.42 363.51,144.42              363.51,144.42 376.09,129.99 376.09,129.99              376.09,129.99 386.00,120.00 386.00,120.00              386.00,120.00 374.00,121.83 374.00,121.83              365.10,122.78 347.64,122.18 339.00,120.00              335.53,144.49 309.25,164.29 290.25,177.56              270.37,191.44 256.75,197.80 235.01,207.73              217.01,215.96 197.26,223.89 178.00,228.56              178.00,228.56 170.00,230.04 170.00,230.04              163.03,231.67 146.66,234.99 140.00,235.00              140.00,235.00 133.00,235.00 133.00,235.00              133.00,235.00 123.00,235.82 123.00,235.82              123.00,235.82 109.00,235.00 109.00,235.00              103.49,234.90 103.07,234.18 98.00,232.82              81.01,228.30 66.63,218.30 61.04,200.99              59.54,196.33 59.09,196.08 59.00,191.00              58.90,184.32 60.01,177.61 62.69,171.42              69.84,154.91 92.36,139.45 108.00,131.59              135.19,117.93 162.06,109.74 192.00,104.86              199.96,103.56 207.87,102.10 216.00,102.00              216.00,102.00 225.00,102.00 225.00,102.00              232.91,101.98 240.39,99.25 248.00,97.28              257.76,94.77 278.23,91.02 288.00,91.00              307.62,90.97 335.32,89.47 339.00,115.00 Z            M 458.00,80.00            C 446.35,83.17 428.59,94.96 418.83,102.42              414.29,105.90 408.81,108.89 406.00,114.00              410.14,113.47 411.19,112.80 415.00,111.66              430.10,107.14 435.58,104.05 447.93,94.66              452.63,91.08 458.93,86.41 458.00,80.00 Z            M 321.00,112.00            C 313.72,101.89 302.35,97.06 290.00,97.00              279.92,96.95 275.12,96.59 265.00,98.39              259.79,99.31 250.35,98.69 247.00,103.00              247.00,103.00 255.00,103.00 255.00,103.00              255.00,103.00 282.00,106.37 282.00,106.37              282.00,106.37 288.00,107.80 288.00,107.80              288.00,107.80 300.00,109.17 300.00,109.17              300.00,109.17 321.00,112.00 321.00,112.00 Z            M 1445.00,100.00            C 1446.61,104.38 1444.76,110.55 1443.62,115.00              1440.00,129.13 1425.40,149.03 1412.00,154.89              1407.64,156.64 1403.53,154.62 1399.00,154.89              1399.00,154.89 1405.00,158.00 1405.00,158.00              1405.00,158.00 1386.00,168.03 1386.00,168.03              1386.00,168.03 1374.00,171.00 1374.00,171.00              1374.00,171.00 1380.00,171.00 1380.00,171.00              1380.00,171.00 1370.47,181.01 1370.47,181.01              1370.47,181.01 1363.79,188.69 1363.79,188.69              1363.79,188.69 1349.00,194.00 1349.00,194.00              1349.00,194.00 1366.00,190.00 1366.00,190.00              1361.70,194.79 1356.74,195.47 1351.00,198.00              1351.00,198.00 1361.00,196.00 1361.00,196.00              1357.58,207.96 1347.63,220.81 1336.00,225.55              1336.00,225.55 1317.00,231.00 1317.00,231.00              1317.00,231.00 1336.00,227.00 1336.00,227.00              1330.96,235.01 1312.76,239.31 1304.00,242.00              1304.00,242.00 1326.00,238.00 1326.00,238.00              1326.00,238.00 1303.00,247.00 1303.00,247.00              1303.00,247.00 1309.00,247.00 1309.00,247.00              1309.00,247.00 1309.00,249.00 1309.00,249.00              1309.00,249.00 1300.00,248.00 1300.00,248.00              1300.00,248.00 1308.00,255.00 1308.00,255.00              1308.00,255.00 1298.00,251.00 1298.00,251.00              1298.00,251.00 1301.00,258.00 1301.00,258.00              1301.00,258.00 1295.00,252.00 1295.00,252.00              1295.00,252.00 1294.00,261.00 1294.00,261.00              1294.00,261.00 1292.00,251.00 1292.00,251.00              1285.67,257.62 1285.66,268.30 1283.83,272.00              1280.74,278.26 1273.94,281.77 1272.00,292.00              1272.00,292.00 1241.42,311.03 1241.42,311.03              1214.99,325.60 1186.08,341.63 1155.00,342.00              1138.75,342.19 1127.72,340.82 1113.00,333.41              1107.57,330.68 1099.82,325.88 1096.65,320.54              1094.64,317.15 1094.68,309.32 1094.00,305.00              1094.00,305.00 1087.00,305.00 1087.00,305.00              1089.84,303.11 1092.55,302.71 1094.53,300.69              1094.53,300.69 1104.42,283.00 1104.42,283.00              1112.60,271.13 1121.70,260.87 1135.00,254.73              1140.52,252.18 1151.81,247.96 1157.76,250.74              1163.88,253.58 1160.21,266.63 1157.76,271.00              1151.62,281.93 1138.39,290.10 1127.00,294.65              1121.21,296.97 1111.65,297.87 1111.06,305.02              1110.31,314.09 1115.82,318.84 1122.83,323.40              1134.95,331.28 1144.55,334.79 1159.00,335.82              1167.02,336.39 1181.31,333.19 1189.00,330.50              1209.79,323.25 1225.36,313.96 1243.61,301.95              1247.27,299.55 1253.44,295.05 1257.00,293.52              1261.43,291.61 1263.85,292.35 1266.12,289.69              1268.06,287.42 1269.62,280.23 1270.67,277.00              1270.67,277.00 1281.00,249.00 1281.00,249.00              1281.00,249.00 1273.00,249.00 1273.00,249.00              1273.00,249.00 1277.00,248.00 1277.00,248.00              1271.14,245.33 1268.14,243.29 1266.00,237.00              1266.00,237.00 1278.00,243.00 1278.00,243.00              1270.22,235.02 1267.91,230.09 1267.00,219.00              1267.00,219.00 1273.68,227.00 1273.68,227.00              1273.68,227.00 1283.00,237.00 1283.00,237.00              1283.00,237.00 1278.00,220.00 1278.00,220.00              1278.00,220.00 1285.00,231.00 1285.00,231.00              1285.00,231.00 1280.00,209.00 1280.00,209.00              1280.00,209.00 1288.00,221.00 1288.00,221.00              1286.86,216.30 1286.20,208.52 1288.00,204.00              1288.00,204.00 1289.00,208.00 1289.00,208.00              1289.23,197.34 1292.80,186.67 1299.00,178.00              1299.00,178.00 1301.00,180.00 1301.00,180.00              1305.12,169.48 1316.14,161.75 1326.00,157.00              1322.74,163.94 1312.32,172.91 1313.00,185.00              1321.78,159.69 1336.17,146.78 1363.00,143.00              1363.00,143.00 1362.00,146.00 1362.00,146.00              1374.22,139.25 1377.47,140.88 1390.00,136.98              1396.83,134.85 1396.52,134.17 1402.00,131.77              1402.00,131.77 1415.00,126.60 1415.00,126.60              1420.46,124.37 1429.61,120.89 1433.91,117.32              1440.90,111.52 1440.75,106.88 1445.00,100.00 Z            M 213.00,107.00            C 178.88,108.57 144.76,117.04 115.00,134.15              107.29,138.58 90.04,148.79 87.00,157.00              87.00,157.00 102.17,150.27 102.17,150.27              102.17,150.27 125.00,140.43 125.00,140.43              125.00,140.43 175.00,120.91 175.00,120.91              175.00,120.91 199.00,112.29 199.00,112.29              199.00,112.29 213.00,107.00 213.00,107.00 Z            M 322.00,119.00            C 312.60,118.97 303.22,116.86 294.00,115.32              294.00,115.32 282.00,113.83 282.00,113.83              282.00,113.83 275.00,112.19 275.00,112.19              275.00,112.19 263.00,110.80 263.00,110.80              263.00,110.80 257.00,109.37 257.00,109.37              257.00,109.37 242.00,108.00 242.00,108.00              242.00,108.00 227.00,108.00 227.00,108.00              217.96,108.11 196.55,117.37 187.00,120.78              187.00,120.78 119.28,147.25 119.28,147.25              110.29,150.98 90.46,160.78 82.00,162.00              79.51,170.05 76.12,172.70 76.00,182.00              75.57,215.41 105.59,229.65 135.00,230.00              169.31,230.40 202.50,218.25 233.00,203.42              251.76,194.30 268.02,185.77 284.80,173.20              297.50,163.69 317.23,144.66 321.31,128.91              322.14,125.71 322.00,122.28 322.00,119.00 Z            M 1419.00,134.00            C 1411.38,135.79 1394.69,143.23 1387.00,146.70              1359.04,159.30 1343.00,168.97 1321.00,191.00              1314.00,198.01 1299.46,214.10 1296.00,223.00              1296.00,223.00 1317.17,198.00 1317.17,198.00              1327.78,186.27 1341.68,174.45 1355.00,165.86              1365.92,158.82 1381.92,151.04 1394.00,146.01              1400.68,143.23 1414.29,138.70 1419.00,134.00 Z            M 1359.00,148.00            C 1359.00,148.00 1358.00,148.00 1358.00,148.00              1358.00,148.00 1359.00,149.00 1359.00,149.00              1359.00,149.00 1359.00,148.00 1359.00,148.00 Z            M 768.00,165.00            C 763.56,167.29 762.41,169.76 759.15,173.34              750.67,182.63 745.39,189.38 742.66,202.00              741.81,205.93 740.48,216.77 745.26,218.75              749.57,220.54 754.58,211.03 756.05,208.00              761.87,196.04 766.25,178.21 768.00,165.00 Z            M 1345.00,175.00            C 1345.00,175.00 1344.00,175.00 1344.00,175.00              1344.00,175.00 1345.00,176.00 1345.00,176.00              1345.00,176.00 1345.00,175.00 1345.00,175.00 Z            M 1344.00,176.00            C 1336.00,181.36 1329.76,188.21 1323.00,195.00              1307.87,210.20 1295.31,227.84 1285.75,247.00              1282.60,253.31 1276.53,266.47 1275.00,273.00              1281.43,269.78 1281.94,265.14 1284.45,259.00              1284.45,259.00 1293.26,241.00 1293.26,241.00              1301.85,224.35 1313.65,209.83 1326.17,196.00              1331.56,190.04 1340.71,182.96 1344.00,176.00 Z            M 1287.00,238.00            C 1287.00,238.00 1286.00,238.00 1286.00,238.00              1286.00,238.00 1287.00,239.00 1287.00,239.00              1287.00,239.00 1287.00,238.00 1287.00,238.00 Z            M 1298.00,250.00            C 1298.00,250.00 1297.00,250.00 1297.00,250.00              1297.00,250.00 1298.00,251.00 1298.00,251.00              1298.00,251.00 1298.00,250.00 1298.00,250.00 Z            M 777.00,273.00            C 764.35,282.03 745.85,295.34 740.32,310.00              736.72,319.57 737.03,331.34 750.00,332.75              759.05,333.73 774.43,325.56 782.00,320.85              791.23,315.11 820.47,295.87 827.33,289.25              827.33,289.25 841.42,273.01 841.42,273.01              847.74,265.19 855.31,258.50 865.00,255.34              866.96,254.71 871.77,253.08 873.67,253.77              876.15,254.67 875.23,257.32 874.24,259.00              872.72,261.60 865.51,268.54 863.01,270.83              846.70,285.76 837.91,288.63 828.78,310.72              826.27,316.80 823.44,327.72 830.11,332.11              833.82,334.61 838.15,333.59 842.00,332.11              847.22,330.03 859.99,322.53 865.00,319.31              865.00,319.31 891.58,301.84 891.58,301.84              909.14,289.09 934.99,269.99 954.00,260.41              962.36,256.20 969.49,253.00 979.00,253.00              982.27,253.00 986.80,252.67 988.40,256.23              991.97,264.16 983.38,274.48 980.00,281.00              980.00,281.00 989.00,276.43 989.00,276.43              1001.09,270.41 1028.45,263.95 1032.74,283.00              1033.03,284.92 1033.11,289.04 1032.74,291.00              1032.25,295.98 1025.60,307.38 1023.18,312.42              1021.44,315.60 1020.03,319.54 1023.18,322.33              1027.03,325.35 1035.58,323.22 1040.00,322.33              1040.00,322.33 1083.00,310.00 1083.00,310.00              1083.00,310.00 1084.00,313.00 1084.00,313.00              1067.58,319.20 1032.94,329.80 1016.00,329.89              1016.00,329.89 1009.02,329.89 1009.02,329.89              1002.90,328.63 1002.83,324.00 1004.32,319.00              1006.83,310.61 1014.10,302.75 1015.56,294.00              1016.75,286.82 1012.62,278.76 1004.91,277.28              997.59,275.87 985.71,284.54 980.00,288.59              970.30,295.47 967.20,298.18 958.87,306.47              958.87,306.47 941.91,321.79 941.91,321.79              938.51,323.84 931.36,324.74 927.00,326.00              926.80,319.82 933.72,315.68 937.87,311.71              949.26,300.84 959.07,294.75 966.58,280.00              968.66,275.92 975.37,264.82 970.26,260.74              968.05,258.97 963.08,262.31 961.00,263.50              961.00,263.50 936.17,279.77 936.17,279.77              908.79,298.92 873.05,325.97 842.00,336.86              834.46,339.50 813.77,342.58 809.31,333.96              804.87,325.35 812.48,313.86 817.00,307.00              810.69,309.69 805.91,314.81 800.00,318.28              782.88,328.33 766.91,335.77 747.00,338.15              743.74,338.55 741.40,339.14 738.00,338.90              729.80,338.33 722.03,332.56 721.20,324.00              720.83,320.24 722.35,316.66 723.00,313.00              713.25,320.16 706.89,324.55 696.00,330.04              685.71,335.30 661.50,346.96 655.70,330.04              654.69,327.04 654.96,318.51 655.00,315.00              655.10,306.98 657.85,301.78 661.86,295.00              671.23,279.18 693.24,264.13 711.00,259.61              724.18,256.25 751.10,256.24 750.00,276.00              752.32,278.43 750.59,280.20 747.94,281.57              745.32,282.93 738.03,284.69 735.00,285.00              734.08,275.13 727.57,265.36 717.00,264.52              708.78,263.86 700.87,268.92 695.13,274.29              685.59,283.21 676.96,292.21 673.00,305.00              670.08,313.80 668.61,316.27 673.00,325.00              674.57,327.78 676.59,330.95 680.01,331.36              684.38,331.88 696.93,323.13 701.00,320.58              718.35,309.69 733.44,295.90 749.42,283.26              757.11,277.18 757.90,274.03 768.00,271.59              771.85,270.66 773.04,270.21 777.00,271.00              777.00,271.00 777.00,273.00 777.00,273.00 Z            M 278.00,255.00            C 271.30,256.27 253.16,266.91 246.00,270.70              223.83,282.44 203.78,292.60 183.41,307.59              177.87,311.67 168.54,319.70 164.53,325.00              162.87,327.20 160.42,330.88 162.07,333.69              163.66,336.40 168.28,336.03 171.00,336.00              180.37,335.89 188.92,330.67 197.00,326.41              218.44,315.10 242.42,293.77 258.93,276.01              263.84,270.73 274.97,260.39 278.00,255.00 Z            M 1113.00,295.00            C 1121.95,293.18 1137.33,280.85 1141.97,272.73              1143.42,270.20 1148.56,255.76 1140.95,258.40              1138.40,259.29 1134.01,263.97 1132.01,266.00              1125.68,272.46 1114.77,286.30 1113.00,295.00 Z"
     style="fill:#ffffff;stroke:#ffffff;stroke-opacity:1" />
  <path
     id="rect1717"
     style="fill:#ffffff;stroke-width:0.750094"
     d="m 895.62287,214.04715 5.16606,0.1722 c 1.33486,0.0445 2.23863,0.73083 2.23863,2.06643 v 3.44404 c 0,1.3356 -1.07523,2.41083 -2.41083,2.41083 h -10.33212 c -1.3356,0 -3.12788,-1.28404 -2.41083,-2.41083 l 2.41083,-3.78844 c 0,0 4.0034,-1.93872 5.33826,-1.89423 z"
     sodipodi:nodetypes="ssssssscs" />
</svg>
